PathFileType	4	(X/Y/Z)	..\data\2014007\dynamic\2014007_C4_04.trc
DataRate	CameraRate	NumFrames	NumMarkers	Units	OrigDataRate	OrigDataStartFrame	OrigNumFrames
100.000000	100.000000	4	52	mm	100.000000	70	188
Frame#	Time	L_IAS			L_IPS			R_IPS			R_IAS			L_FTC			L_FLE			L_FME			L_FAX			L_TTC			L_FAL			L_TAM			L_FCC			L_FM1			L_FM2			L_FM5			R_FTC			R_FLE			R_FME			R_FAX			R_TTC			R_FAL			R_TAM			R_FCC			R_FM1			R_FM2			R_FM5			CV7			TV10			SXS			SJN			L_SIA			L_SRS			L_SAA			L_SAE			L_HLE			L_HME			L_UOA			L_RSP			L_UHE			L_HM2			L_HM5			R_SIA			R_SRS			R_SAA			R_SAE			R_HLE			R_HME			R_UOA			R_RSP			R_UHE			R_HM2			R_HM5			
		X1	Y1	Z1	X2	Y2	Z2	X3	Y3	Z3	X4	Y4	Z4	X5	Y5	Z5	X6	Y6	Z6	X7	Y7	Z7	X8	Y8	Z8	X9	Y9	Z9	X10	Y10	Z10	X11	Y11	Z11	X12	Y12	Z12	X13	Y13	Z13	X14	Y14	Z14	X15	Y15	Z15	X16	Y16	Z16	X17	Y17	Z17	X18	Y18	Z18	X19	Y19	Z19	X20	Y20	Z20	X21	Y21	Z21	X22	Y22	Z22	X23	Y23	Z23	X24	Y24	Z24	X25	Y25	Z25	X26	Y26	Z26	X27	Y27	Z27	X28	Y28	Z28	X29	Y29	Z29	X30	Y30	Z30	X31	Y31	Z31	X32	Y32	Z32	X33	Y33	Z33	X34	Y34	Z34	X35	Y35	Z35	X36	Y36	Z36	X37	Y37	Z37	X38	Y38	Z38	X39	Y39	Z39	X40	Y40	Z40	X41	Y41	Z41	X42	Y42	Z42	X43	Y43	Z43	X44	Y44	Z44	X45	Y45	Z45	X46	Y46	Z46	X47	Y47	Z47	X48	Y48	Z48	X49	Y49	Z49	X50	Y50	Z50	X51	Y51	Z51	X52	Y52	Z52	

71	0.7000000000000001	-332.0104064941407	900.081237792969	175.4172973632812	-537.6292724609376	967.241638183594	241.2177429199219	-537.4590454101564	975.893493652344	321.5057373046875	-354.2817382812501	913.646179199219	432.7083435058594	-382.4098205566407	871.6856079101565	106.3329772949219	-246.5887298583985	470.5628356933595	170.6498107910156	-257.3226013183595	454.9505615234376	292.2584228515625	-250.1812286376954	403.8946838378907	167.8394165039062	-202.6985168457032	405.552703857422	231.2800445556641	-221.9918823242188	62.95103073120119	203.4631500244141	-205.314437866211	84.86704254150392	284.0432128906251	-268.2060546875001	21.2872314453125	253.3861083984375	-81.18016815185551	37.93075180053712	275.2976074218751	-82.58928680419926	52.78129196166994	225.9668884277344	-114.6704330444337	32.25582122802735	184.5094757080078	-432.1002197265627	862.373718261719	485.9466857910157	-529.4857788085939	462.8327941894532	417.1231384277344	-534.1224975585939	466.9895019531251	283.2626647949219	-578.9464721679689	407.5609741210939	412.6318359375001	-524.4744873046876	380.7614746093751	360.4791259765625	-736.7076416015626	89.61179351806642	364.0183410644531	-712.1931152343751	108.1482009887696	280.6205139160156	-793.9901123046877	74.07674407958986	307.7036132812499	-614.8413085937501	26.4620761871338	285.3098449707031	-604.9696044921876	38.79484558105469	337.4115905761719	-650.6563720703126	24.3034954071045	383.5652465820312	-493.9996643066408	1416.870727539063	273.5982971191406	-545.2342529296876	1179.306518554688	288.0837097167969	-369.8784484863282	1334.497802734375	269.5556945800781	-297.646942138672	1162.356567382813	275.7551879882812	-560.8599853515626	1193.859130859375	195.204345703125	-537.4412841796876	1334.819458007813	193.1353759765625	-510.3150024414064	1337.010986328125	121.2020950317383	-460.7939758300782	1339.644653320313	90.08711242675777	-550.4077148437501	1028.512573242188	54.46541213989253	-560.8200683593751	1021.526611328125	135.150146484375	-578.8265380859376	1018.877502441406	87.82104492187494	-504.132781982422	775.0567016601565	74.45269775390621	-557.8035278320314	785.926940917969	19.59836769103998	-496.7221069335939	682.3906250000001	65.56867218017574	-587.5077514648439	706.4375610351564	26.26671791076654	-559.7506103515626	1206.44189453125	383.3151550292969	-533.2283325195314	1336.344360351563	377.0522766113281	-483.4816894531252	1357.395263671875	442.1583862304688	-438.8317260742189	1361.1953125	460.8882751464844	-433.6037902832033	1046.1806640625	557.2073364257814	-477.1351318359377	1028.869750976563	484.3174133300782	-472.1404724121095	1012.912475585938	536.0111083984375	-286.3334350585939	829.6868286132815	511.7484130859376	-329.2991638183595	820.5727539062502	578.0544433593751	-241.9968719482423	759.1429443359376	512.9340209960939	-310.5397033691407	747.2468261718751	585.2793579101564	
72	0.71	-321.2497558593751	901.3804931640627	174.3522796630859	-527.0104370117189	967.6694335937502	240.6525726318359	-526.6381835937501	975.9757080078127	321.0760192871094	-343.2864685058595	913.3857421875002	431.4642944335938	-371.5895385742188	873.0144653320315	105.3584823608398	-236.8137969970704	470.8611450195314	170.3392028808594	-249.0402374267579	455.2829589843751	291.7272338867188	-241.2253875732423	404.0677490234376	167.4539794921875	-194.5655975341798	404.984344482422	231.401596069336	-220.6539611816407	62.78073501586915	203.5667114257813	-203.7962036132813	84.10775756835939	284.3006591796876	-267.9961242675782	21.96591567993164	253.1992797851563	-80.22732543945317	34.33481216430665	275.9579162597657	-80.90039062500004	49.52856826782228	226.2765808105469	-113.7771072387696	30.03116416931153	184.0538330078125	-420.7980346679689	862.025573730469	485.0924682617188	-518.4553833007814	462.7364196777345	417.6053771972657	-522.2420043945314	465.8339843750001	283.8976440429688	-569.1312255859376	408.278778076172	413.1729736328126	-514.7914428710939	379.9628295898438	361.404052734375	-734.0445556640626	93.6758270263672	364.8581237792968	-708.4251098632814	111.5714340209961	281.8613891601562	-791.2800292968752	80.50918579101564	308.1734924316406	-614.9705200195314	26.39096832275391	285.2278137207031	-605.0586547851564	38.36770248413087	337.2223815917969	-650.6573486328126	24.50106811523438	383.201904296875	-484.5469360351564	1417.104370117188	272.4736938476562	-535.0259399414064	1179.408813476563	287.4955139160156	-360.1925354003907	1335.04541015625	268.4480590820312	-287.4226684570314	1163.165649414063	274.9324951171875	-550.7315063476564	1193.619873046875	194.3280334472656	-527.8052368164064	1334.696533203125	192.0560455322266	-500.6880798339845	1336.78515625	120.0710830688476	-451.1124877929689	1339.44775390625	88.94334411621089	-537.9501953125001	1027.504150390625	53.11626815795893	-548.4450683593751	1020.268920898438	133.716812133789	-566.3223266601564	1017.623168945313	86.42329406738276	-489.3244018554689	774.3845214843752	72.45093536376949	-543.4643554687501	785.0356445312502	17.6406459808349	-481.2607421875001	681.9038085937501	63.01540756225582	-572.4463500976564	705.3338012695314	23.82297325134271	-549.6704711914064	1206.617553710938	382.4465637207031	-523.4837036132814	1336.633544921875	375.9569396972656	-473.8187866210939	1357.948486328125	441.0447692871094	-429.1962890625002	1361.802978515625	459.8251953125001	-425.7234802246095	1046.604125976563	555.7196044921876	-469.2018127441408	1029.84326171875	482.6746826171876	-464.5457153320314	1013.740295410156	534.4000244140625	-280.6622009277345	828.6138916015627	510.3085937500001	-323.5759887695314	820.0124511718752	576.6187133789064	-236.9309539794923	757.6729736328126	511.4643249511719	-305.6022949218751	746.4948730468751	583.8223876953126	
73	0.72	-310.4983215332032	902.8486938476565	173.2930450439453	-516.3769531250001	968.341247558594	240.0041961669922	-515.8514404296876	976.2834472656252	320.5586242675781	-332.344940185547	913.4791259765627	430.1073303222657	-360.7439270019532	874.5477294921877	104.3537063598633	-227.7365875244141	471.0811767578126	169.9062347412109	-241.3168334960938	455.5780029296876	291.1111145019531	-233.0070190429688	404.1864013671876	166.9644470214844	-187.0611114501954	404.451873779297	231.3416442871094	-219.4719543457032	62.7672691345215	203.6356506347657	-202.4496002197266	83.57615661621095	284.4793395996094	-267.7215881347657	22.64523506164551	253.0105133056641	-79.40683746337895	31.43602752685548	276.5070800781251	-79.35823059082036	46.95929718017579	226.4478454589844	-112.9836654663087	28.35838699340821	183.4100494384766	-409.485809326172	861.8905029296877	484.1526184082032	-506.4598999023439	462.554412841797	418.3710021972657	-509.1275024414064	464.357391357422	284.8550415039062	-558.3153076171876	408.9334106445314	414.0151977539063	-504.1064453125002	379.0517578125001	362.7286071777344	-730.7843017578126	98.24952697753909	365.8202209472656	-703.9313354492189	115.3967590332032	283.2805786132812	-787.8001098632815	87.7471389770508	308.7294311523437	-615.1228637695314	26.40581512451173	285.1119995117188	-605.1876831054689	37.89262008666993	336.9509582519531	-650.5462036132814	24.88627433776856	382.8018493652344	-475.0797424316408	1417.5498046875	271.3600158691406	-524.7981567382814	1179.720581054688	286.8776550292969	-350.4915771484376	1335.819091796875	267.3423767089844	-277.1693725585939	1164.228149414063	274.0740356445312	-540.5829467773439	1193.624145507813	193.4488830566406	-518.1485595703126	1334.796630859375	190.9947967529297	-491.043670654297	1336.80322265625	118.9530258178711	-441.4378662109376	1339.517211914063	87.81567382812496	-525.2930908203126	1026.732177734375	51.77328491210933	-535.8095703125001	1019.234619140625	132.3118438720703	-553.5933227539064	1016.555358886719	85.05482482910151	-474.1697082519532	773.9893188476565	70.42793273925777	-528.7315063476564	784.3967895507815	15.66117477416986	-465.3241271972657	681.7036132812501	60.38275146484371	-556.9322509765626	704.4758911132814	21.34163093566888	-539.5707397460939	1207.023559570313	381.5934753417969	-513.7142944335939	1337.14306640625	374.8737487792969	-464.1307983398439	1358.73046875	439.9325866699219	-419.5286865234377	1362.63525390625	458.7546691894532	-417.8305969238283	1047.307495117188	554.2819824218751	-461.313934326172	1031.110961914063	481.1063842773438	-456.9718322753908	1014.863098144531	532.8811035156251	-275.2512512207032	827.695739746094	508.8820495605469	-317.9776916503907	819.7005004882815	575.2590942382814	-232.2089843750001	756.3079223632814	509.9635009765626	-300.8872680664064	745.9694824218751	582.4402465820314	
74	0.73	-299.7951660156251	904.4361572265627	172.2494964599609	-505.7647399902345	969.2385864257815	239.2707061767578	-505.144256591797	976.8013305664065	319.9480285644531	-321.5057983398439	913.9160156250002	428.6603698730469	-349.9202880859376	876.243103027344	103.3267822265625	-219.4270172119141	471.2032775878907	169.3488311767578	-234.1372222900391	455.833221435547	290.4197998046875	-225.5914764404298	404.2298889160157	166.3810577392578	-180.2117004394532	403.9365844726564	231.0948944091797	-218.4383697509766	62.86315155029298	203.6900634765625	-201.264373779297	83.22773742675783	284.6015319824219	-267.3848876953126	23.28489494323731	252.8404846191407	-78.70443725585942	29.21122550964356	276.9670104980469	-77.96073913574223	45.03663635253907	226.5151062011719	-112.2749328613282	27.18707466125489	182.6489562988282	-398.2294311523439	861.9505615234377	483.1218872070313	-493.4681091308595	462.2567138671876	419.4331359863282	-494.7234191894533	462.5495605468751	286.1412658691406	-546.4148559570314	409.4733886718751	415.1781005859376	-492.3517456054689	378.0169982910157	364.4574890136719	-726.8195190429689	103.3499603271485	366.9078369140624	-698.6434326171876	119.64013671875	284.8620910644531	-783.4406738281252	95.78325653076173	309.3988952636718	-615.1996459960939	26.58797073364259	284.9978637695312	-605.2689819335939	37.43054962158204	336.6339416503906	-650.2248535156251	25.54628944396973	382.3893737792969	-465.600311279297	1418.188354492188	270.2516479492188	-514.5754394531251	1180.229248046875	286.2120666503906	-340.7820129394532	1336.793212890625	266.2465209960938	-266.9107666015626	1165.509765625	273.1899108886719	-530.4201660156251	1193.864013671875	192.5482635498047	-508.469451904297	1335.10986328125	189.9424743652343	-481.3710327148439	1337.057250976563	117.8421554565429	-431.757781982422	1339.844970703125	86.70433807373043	-512.4667358398439	1026.202026367188	50.43525695800776	-522.9417724609376	1018.432983398438	130.9385833740234	-540.6701049804689	1015.679565429688	83.71164703369135	-458.6994018554689	773.8847656250002	68.40286254882808	-513.6138916015626	784.012634277344	13.67713260650629	-448.9344482421876	681.8021240234376	57.69973373413082	-540.9730834960939	703.8648681640626	18.85459136962884	-529.4817504882814	1207.647094726563	380.7422180175781	-503.9393920898439	1337.857421875	373.796142578125	-454.4389038085939	1359.719482421875	438.8200378417969	-409.851287841797	1363.669799804688	457.6775817871094	-409.927703857422	1048.27099609375	552.9060058593751	-453.4629211425783	1032.641845703125	479.6237487792969	-449.4077148437502	1016.256225585938	531.4686279296876	-270.0640869140626	826.9425048828127	507.4808959960938	-312.462127685547	819.6387939453127	573.9918823242189	-227.8092041015626	755.0545043945314	508.4368286132814	-296.3522033691407	745.6734619140626	581.1466674804689	
